<svg id="Layer_1" data-name="Layer 1" xmlns="http://www.w3.org/2000/svg" viewBox="0 0 1334 301"><defs><style>.cls-1{fill:#8a9eac;}.cls-2{fill:#ff9a55;}</style></defs><title>final expandedwithouttagline</title><path class="cls-1" d="M31.67,30.89H59.93c9.13,0,15.45,2.39,19.46,6.49,3.5,3.42,5.29,8,5.29,13.92v.17c0,9.13-4.86,15.19-12.29,18.35L86.65,90.65H67.52l-12-18.1H48.23v18.1H31.67ZM59.16,59.58c5.63,0,8.88-2.73,8.88-7.09v-.17c0-4.69-3.42-7.09-9-7.09H48.23V59.58Z"/><path class="cls-1" d="M91,60.94v-.17c0-17.16,13.83-31.07,32.27-31.07s32.1,13.74,32.1,30.9v.17c0,17.16-13.83,31.08-32.27,31.08S91,78.1,91,60.94Zm47.46,0v-.17c0-8.62-6.23-16.13-15.36-16.13S108,52,108,60.6v.17c0,8.63,6.23,16.14,15.28,16.14S138.46,69.57,138.46,60.94Z"/><path class="cls-1" d="M164,30.89h16.56V76.14h28.94V90.65H164Z"/><path class="cls-1" d="M216.57,30.89h16.56V76.14h28.95V90.65H216.57Z"/><path class="cls-1" d="M269.5,30.89h16.65V90.65H269.5Z"/><path class="cls-1" d="M297.07,30.89h15.46l24.58,31.59V30.89H353.5V90.65H339L313.46,57.87V90.65H297.07Z"/><path class="cls-1" d="M362,60.94v-.17c0-17.41,13.66-31.07,32.18-31.07,10.5,0,17.93,3.24,24.25,8.7l-9.73,11.7c-4.27-3.58-8.54-5.63-14.43-5.63-8.62,0-15.28,7.25-15.28,16.39V61c0,9.65,6.74,16.56,16.22,16.56a16.84,16.84,0,0,0,9.56-2.48V67.86H393V55.74h27.49V82.63a40.4,40.4,0,0,1-26,9.22C376,91.85,362,79,362,60.94Z"/><path class="cls-2" d="M64.61,150.93H21v-35.3H148.5v35.3H104.89V261H64.61Z"/><path class="cls-2" d="M166.15,115.63H283.06V149.9H206v22H275.8v31.77H206v23H284.1V261h-118Z"/><path class="cls-2" d="M304.66,115.63h37.59l59.8,76.84V115.63h39.87V261h-35.3l-62.09-79.74V261H304.66Z"/><path class="cls-2" d="M467.67,115.63h56.07c51.92,0,82,29.91,82,71.85v.42c0,41.94-30.53,73.09-82.86,73.09H467.67Zm56.69,109.65c24.09,0,40.08-13.29,40.08-36.76v-.41c0-23.26-16-36.76-40.08-36.76H508v73.93Z"/><path class="cls-2" d="M626.54,115.63H743.45V149.9h-77v22h69.77v31.77H666.41v23h78.07V261H626.54Z"/><path class="cls-2" d="M765,115.63h68.74c22.22,0,37.58,5.82,47.35,15.78,8.51,8.31,12.87,19.52,12.87,33.85v.42c0,22.22-11.84,37-29.9,44.64L898.78,261H852.26L823,217H805.33v44H765Zm66.87,69.78c13.71,0,21.6-6.65,21.6-17.24v-.41c0-11.43-8.31-17.24-21.81-17.24H805.33v34.89Z"/><path class="cls-2" d="M447.82,91.67l52.4-30.14a1.14,1.14,0,0,0,0-2L447.89,29.19a1.14,1.14,0,0,0-1.71,1l0,25a1.15,1.15,0,0,0,.57,1l5.77,3.34a1.13,1.13,0,0,1,0,2l-5.76,3.27a1.13,1.13,0,0,0-.58,1l0,24.93A1.14,1.14,0,0,0,447.82,91.67Z"/></svg>